<mxfile host="app.diagrams.net" agent="Mozilla/5.0 (Windows NT 10.0; Win64; x64) AppleWebKit/537.36 (KHTML, like Gecko) Chrome/130.0.0.0 Safari/537.36 OPR/115.0.0.0" version="25.0.3">
  <diagram name="Page-1" id="cWWiLWiSpOrosw7ME1-R">
    <mxGraphModel dx="1013" dy="984" grid="1" gridSize="10" guides="1" tooltips="1" connect="1" arrows="1" fold="1" page="1" pageScale="1" pageWidth="827" pageHeight="1169" math="0" shadow="0">
      <root>
        <mxCell id="0" />
        <mxCell id="1" parent="0" />
        <mxCell id="P29NJGGeOF0W7lKbHD5c-1" value="Clients" style="swimlane;fontStyle=0;childLayout=stackLayout;horizontal=1;startSize=30;horizontalStack=0;resizeParent=1;resizeParentMax=0;resizeLast=0;collapsible=1;marginBottom=0;whiteSpace=wrap;html=1;" vertex="1" parent="1">
          <mxGeometry x="1005" y="80" width="140" height="300" as="geometry" />
        </mxCell>
        <mxCell id="P29NJGGeOF0W7lKbHD5c-2" value="&lt;b&gt;&lt;u&gt;num_tel&lt;/u&gt;&lt;/b&gt;" style="text;strokeColor=none;fillColor=none;align=left;verticalAlign=middle;spacingLeft=4;spacingRight=4;overflow=hidden;points=[[0,0.5],[1,0.5]];portConstraint=eastwest;rotatable=0;whiteSpace=wrap;html=1;" vertex="1" parent="P29NJGGeOF0W7lKbHD5c-1">
          <mxGeometry y="30" width="140" height="30" as="geometry" />
        </mxCell>
        <mxCell id="P29NJGGeOF0W7lKbHD5c-3" value="nom" style="text;strokeColor=none;fillColor=none;align=left;verticalAlign=middle;spacingLeft=4;spacingRight=4;overflow=hidden;points=[[0,0.5],[1,0.5]];portConstraint=eastwest;rotatable=0;whiteSpace=wrap;html=1;" vertex="1" parent="P29NJGGeOF0W7lKbHD5c-1">
          <mxGeometry y="60" width="140" height="30" as="geometry" />
        </mxCell>
        <mxCell id="P29NJGGeOF0W7lKbHD5c-4" value="prenom" style="text;strokeColor=none;fillColor=none;align=left;verticalAlign=middle;spacingLeft=4;spacingRight=4;overflow=hidden;points=[[0,0.5],[1,0.5]];portConstraint=eastwest;rotatable=0;whiteSpace=wrap;html=1;" vertex="1" parent="P29NJGGeOF0W7lKbHD5c-1">
          <mxGeometry y="90" width="140" height="30" as="geometry" />
        </mxCell>
        <mxCell id="P29NJGGeOF0W7lKbHD5c-5" value="mdp" style="text;strokeColor=none;fillColor=none;align=left;verticalAlign=middle;spacingLeft=4;spacingRight=4;overflow=hidden;points=[[0,0.5],[1,0.5]];portConstraint=eastwest;rotatable=0;whiteSpace=wrap;html=1;" vertex="1" parent="P29NJGGeOF0W7lKbHD5c-1">
          <mxGeometry y="120" width="140" height="30" as="geometry" />
        </mxCell>
        <mxCell id="P29NJGGeOF0W7lKbHD5c-6" value="adresse" style="text;strokeColor=none;fillColor=none;align=left;verticalAlign=middle;spacingLeft=4;spacingRight=4;overflow=hidden;points=[[0,0.5],[1,0.5]];portConstraint=eastwest;rotatable=0;whiteSpace=wrap;html=1;" vertex="1" parent="P29NJGGeOF0W7lKbHD5c-1">
          <mxGeometry y="150" width="140" height="30" as="geometry" />
        </mxCell>
        <mxCell id="P29NJGGeOF0W7lKbHD5c-7" value="email" style="text;strokeColor=none;fillColor=none;align=left;verticalAlign=middle;spacingLeft=4;spacingRight=4;overflow=hidden;points=[[0,0.5],[1,0.5]];portConstraint=eastwest;rotatable=0;whiteSpace=wrap;html=1;" vertex="1" parent="P29NJGGeOF0W7lKbHD5c-1">
          <mxGeometry y="180" width="140" height="30" as="geometry" />
        </mxCell>
        <mxCell id="P29NJGGeOF0W7lKbHD5c-9" value="blackliste" style="text;strokeColor=none;fillColor=none;align=left;verticalAlign=middle;spacingLeft=4;spacingRight=4;overflow=hidden;points=[[0,0.5],[1,0.5]];portConstraint=eastwest;rotatable=0;whiteSpace=wrap;html=1;" vertex="1" parent="P29NJGGeOF0W7lKbHD5c-1">
          <mxGeometry y="210" width="140" height="30" as="geometry" />
        </mxCell>
        <mxCell id="P29NJGGeOF0W7lKbHD5c-10" value="is_admin" style="text;strokeColor=none;fillColor=none;align=left;verticalAlign=middle;spacingLeft=4;spacingRight=4;overflow=hidden;points=[[0,0.5],[1,0.5]];portConstraint=eastwest;rotatable=0;whiteSpace=wrap;html=1;" vertex="1" parent="P29NJGGeOF0W7lKbHD5c-1">
          <mxGeometry y="240" width="140" height="30" as="geometry" />
        </mxCell>
        <mxCell id="P29NJGGeOF0W7lKbHD5c-8" value="pointsFidelite" style="text;strokeColor=none;fillColor=none;align=left;verticalAlign=middle;spacingLeft=4;spacingRight=4;overflow=hidden;points=[[0,0.5],[1,0.5]];portConstraint=eastwest;rotatable=0;whiteSpace=wrap;html=1;" vertex="1" parent="P29NJGGeOF0W7lKbHD5c-1">
          <mxGeometry y="270" width="140" height="30" as="geometry" />
        </mxCell>
        <mxCell id="P29NJGGeOF0W7lKbHD5c-11" value="Commandes" style="swimlane;fontStyle=0;childLayout=stackLayout;horizontal=1;startSize=30;horizontalStack=0;resizeParent=1;resizeParentMax=0;resizeLast=0;collapsible=1;marginBottom=0;whiteSpace=wrap;html=1;" vertex="1" parent="1">
          <mxGeometry x="1005" y="590" width="140" height="210" as="geometry" />
        </mxCell>
        <mxCell id="P29NJGGeOF0W7lKbHD5c-12" value="&lt;b&gt;&lt;u&gt;num_commande&lt;/u&gt;&lt;/b&gt;" style="text;strokeColor=none;fillColor=none;align=left;verticalAlign=middle;spacingLeft=4;spacingRight=4;overflow=hidden;points=[[0,0.5],[1,0.5]];portConstraint=eastwest;rotatable=0;whiteSpace=wrap;html=1;" vertex="1" parent="P29NJGGeOF0W7lKbHD5c-11">
          <mxGeometry y="30" width="140" height="30" as="geometry" />
        </mxCell>
        <mxCell id="P29NJGGeOF0W7lKbHD5c-50" value="date" style="text;strokeColor=none;fillColor=none;align=left;verticalAlign=middle;spacingLeft=4;spacingRight=4;overflow=hidden;points=[[0,0.5],[1,0.5]];portConstraint=eastwest;rotatable=0;whiteSpace=wrap;html=1;" vertex="1" parent="P29NJGGeOF0W7lKbHD5c-11">
          <mxGeometry y="60" width="140" height="30" as="geometry" />
        </mxCell>
        <mxCell id="P29NJGGeOF0W7lKbHD5c-13" value="date_creation" style="text;strokeColor=none;fillColor=none;align=left;verticalAlign=middle;spacingLeft=4;spacingRight=4;overflow=hidden;points=[[0,0.5],[1,0.5]];portConstraint=eastwest;rotatable=0;whiteSpace=wrap;html=1;" vertex="1" parent="P29NJGGeOF0W7lKbHD5c-11">
          <mxGeometry y="90" width="140" height="30" as="geometry" />
        </mxCell>
        <mxCell id="P29NJGGeOF0W7lKbHD5c-14" value="sur_place" style="text;strokeColor=none;fillColor=none;align=left;verticalAlign=middle;spacingLeft=4;spacingRight=4;overflow=hidden;points=[[0,0.5],[1,0.5]];portConstraint=eastwest;rotatable=0;whiteSpace=wrap;html=1;" vertex="1" parent="P29NJGGeOF0W7lKbHD5c-11">
          <mxGeometry y="120" width="140" height="30" as="geometry" />
        </mxCell>
        <mxCell id="P29NJGGeOF0W7lKbHD5c-15" value="num_table" style="text;strokeColor=none;fillColor=none;align=left;verticalAlign=middle;spacingLeft=4;spacingRight=4;overflow=hidden;points=[[0,0.5],[1,0.5]];portConstraint=eastwest;rotatable=0;whiteSpace=wrap;html=1;" vertex="1" parent="P29NJGGeOF0W7lKbHD5c-11">
          <mxGeometry y="150" width="140" height="30" as="geometry" />
        </mxCell>
        <mxCell id="P29NJGGeOF0W7lKbHD5c-51" value="etat" style="text;strokeColor=none;fillColor=none;align=left;verticalAlign=middle;spacingLeft=4;spacingRight=4;overflow=hidden;points=[[0,0.5],[1,0.5]];portConstraint=eastwest;rotatable=0;whiteSpace=wrap;html=1;" vertex="1" parent="P29NJGGeOF0W7lKbHD5c-11">
          <mxGeometry y="180" width="140" height="30" as="geometry" />
        </mxCell>
        <mxCell id="P29NJGGeOF0W7lKbHD5c-17" style="edgeStyle=orthogonalEdgeStyle;rounded=0;orthogonalLoop=1;jettySize=auto;html=1;endArrow=none;endFill=0;entryX=0.5;entryY=1;entryDx=0;entryDy=0;" edge="1" parent="1" source="P29NJGGeOF0W7lKbHD5c-11" target="P29NJGGeOF0W7lKbHD5c-1">
          <mxGeometry relative="1" as="geometry">
            <mxPoint x="1075" y="460" as="sourcePoint" />
            <mxPoint x="1045" y="390" as="targetPoint" />
          </mxGeometry>
        </mxCell>
        <mxCell id="P29NJGGeOF0W7lKbHD5c-18" value="0,n" style="text;html=1;align=center;verticalAlign=middle;whiteSpace=wrap;rounded=0;" vertex="1" parent="1">
          <mxGeometry x="1075" y="380" width="60" height="30" as="geometry" />
        </mxCell>
        <mxCell id="P29NJGGeOF0W7lKbHD5c-19" value="1,1" style="text;html=1;align=center;verticalAlign=middle;whiteSpace=wrap;rounded=0;" vertex="1" parent="1">
          <mxGeometry x="1075" y="560" width="60" height="30" as="geometry" />
        </mxCell>
        <mxCell id="P29NJGGeOF0W7lKbHD5c-20" style="edgeStyle=orthogonalEdgeStyle;rounded=0;orthogonalLoop=1;jettySize=auto;html=1;endArrow=none;endFill=0;" edge="1" parent="1" source="P29NJGGeOF0W7lKbHD5c-67" target="P29NJGGeOF0W7lKbHD5c-29">
          <mxGeometry relative="1" as="geometry">
            <mxPoint x="1535" y="330" as="sourcePoint" />
          </mxGeometry>
        </mxCell>
        <mxCell id="P29NJGGeOF0W7lKbHD5c-21" value="Plats" style="swimlane;fontStyle=0;childLayout=stackLayout;horizontal=1;startSize=30;horizontalStack=0;resizeParent=1;resizeParentMax=0;resizeLast=0;collapsible=1;marginBottom=0;whiteSpace=wrap;html=1;" vertex="1" parent="1">
          <mxGeometry x="1465" y="590" width="140" height="300" as="geometry" />
        </mxCell>
        <mxCell id="P29NJGGeOF0W7lKbHD5c-22" value="&lt;b&gt;&lt;u&gt;nom_plat&lt;/u&gt;&lt;/b&gt;" style="text;strokeColor=none;fillColor=none;align=left;verticalAlign=middle;spacingLeft=4;spacingRight=4;overflow=hidden;points=[[0,0.5],[1,0.5]];portConstraint=eastwest;rotatable=0;whiteSpace=wrap;html=1;" vertex="1" parent="P29NJGGeOF0W7lKbHD5c-21">
          <mxGeometry y="30" width="140" height="30" as="geometry" />
        </mxCell>
        <mxCell id="P29NJGGeOF0W7lKbHD5c-23" value="type_plat" style="text;strokeColor=none;fillColor=none;align=left;verticalAlign=middle;spacingLeft=4;spacingRight=4;overflow=hidden;points=[[0,0.5],[1,0.5]];portConstraint=eastwest;rotatable=0;whiteSpace=wrap;html=1;" vertex="1" parent="P29NJGGeOF0W7lKbHD5c-21">
          <mxGeometry y="60" width="140" height="30" as="geometry" />
        </mxCell>
        <mxCell id="P29NJGGeOF0W7lKbHD5c-24" value="stock_utilisable" style="text;strokeColor=none;fillColor=none;align=left;verticalAlign=middle;spacingLeft=4;spacingRight=4;overflow=hidden;points=[[0,0.5],[1,0.5]];portConstraint=eastwest;rotatable=0;whiteSpace=wrap;html=1;" vertex="1" parent="P29NJGGeOF0W7lKbHD5c-21">
          <mxGeometry y="90" width="140" height="30" as="geometry" />
        </mxCell>
        <mxCell id="P29NJGGeOF0W7lKbHD5c-25" value="stock_reserve" style="text;strokeColor=none;fillColor=none;align=left;verticalAlign=middle;spacingLeft=4;spacingRight=4;overflow=hidden;points=[[0,0.5],[1,0.5]];portConstraint=eastwest;rotatable=0;whiteSpace=wrap;html=1;" vertex="1" parent="P29NJGGeOF0W7lKbHD5c-21">
          <mxGeometry y="120" width="140" height="30" as="geometry" />
        </mxCell>
        <mxCell id="P29NJGGeOF0W7lKbHD5c-65" value="quantite_defaut" style="text;strokeColor=none;fillColor=none;align=left;verticalAlign=middle;spacingLeft=4;spacingRight=4;overflow=hidden;points=[[0,0.5],[1,0.5]];portConstraint=eastwest;rotatable=0;whiteSpace=wrap;html=1;" vertex="1" parent="P29NJGGeOF0W7lKbHD5c-21">
          <mxGeometry y="150" width="140" height="30" as="geometry" />
        </mxCell>
        <mxCell id="P29NJGGeOF0W7lKbHD5c-26" value="quantite_promo" style="text;strokeColor=none;fillColor=none;align=left;verticalAlign=middle;spacingLeft=4;spacingRight=4;overflow=hidden;points=[[0,0.5],[1,0.5]];portConstraint=eastwest;rotatable=0;whiteSpace=wrap;html=1;" vertex="1" parent="P29NJGGeOF0W7lKbHD5c-21">
          <mxGeometry y="180" width="140" height="30" as="geometry" />
        </mxCell>
        <mxCell id="P29NJGGeOF0W7lKbHD5c-27" value="prix" style="text;strokeColor=none;fillColor=none;align=left;verticalAlign=middle;spacingLeft=4;spacingRight=4;overflow=hidden;points=[[0,0.5],[1,0.5]];portConstraint=eastwest;rotatable=0;whiteSpace=wrap;html=1;" vertex="1" parent="P29NJGGeOF0W7lKbHD5c-21">
          <mxGeometry y="210" width="140" height="30" as="geometry" />
        </mxCell>
        <mxCell id="P29NJGGeOF0W7lKbHD5c-66" value="prix_reduc" style="text;strokeColor=none;fillColor=none;align=left;verticalAlign=middle;spacingLeft=4;spacingRight=4;overflow=hidden;points=[[0,0.5],[1,0.5]];portConstraint=eastwest;rotatable=0;whiteSpace=wrap;html=1;" vertex="1" parent="P29NJGGeOF0W7lKbHD5c-21">
          <mxGeometry y="240" width="140" height="30" as="geometry" />
        </mxCell>
        <mxCell id="P29NJGGeOF0W7lKbHD5c-28" value="img" style="text;strokeColor=none;fillColor=none;align=left;verticalAlign=middle;spacingLeft=4;spacingRight=4;overflow=hidden;points=[[0,0.5],[1,0.5]];portConstraint=eastwest;rotatable=0;whiteSpace=wrap;html=1;" vertex="1" parent="P29NJGGeOF0W7lKbHD5c-21">
          <mxGeometry y="270" width="140" height="30" as="geometry" />
        </mxCell>
        <mxCell id="P29NJGGeOF0W7lKbHD5c-29" value="Formule" style="swimlane;fontStyle=0;childLayout=stackLayout;horizontal=1;startSize=30;horizontalStack=0;resizeParent=1;resizeParentMax=0;resizeLast=0;collapsible=1;marginBottom=0;whiteSpace=wrap;html=1;" vertex="1" parent="1">
          <mxGeometry x="1465" y="105" width="140" height="120" as="geometry" />
        </mxCell>
        <mxCell id="P29NJGGeOF0W7lKbHD5c-30" value="&lt;b&gt;&lt;u&gt;id_formule&lt;/u&gt;&lt;/b&gt;" style="text;strokeColor=none;fillColor=none;align=left;verticalAlign=middle;spacingLeft=4;spacingRight=4;overflow=hidden;points=[[0,0.5],[1,0.5]];portConstraint=eastwest;rotatable=0;whiteSpace=wrap;html=1;" vertex="1" parent="P29NJGGeOF0W7lKbHD5c-29">
          <mxGeometry y="30" width="140" height="30" as="geometry" />
        </mxCell>
        <mxCell id="P29NJGGeOF0W7lKbHD5c-31" value="libelle_formule" style="text;strokeColor=none;fillColor=none;align=left;verticalAlign=middle;spacingLeft=4;spacingRight=4;overflow=hidden;points=[[0,0.5],[1,0.5]];portConstraint=eastwest;rotatable=0;whiteSpace=wrap;html=1;" vertex="1" parent="P29NJGGeOF0W7lKbHD5c-29">
          <mxGeometry y="60" width="140" height="30" as="geometry" />
        </mxCell>
        <mxCell id="P29NJGGeOF0W7lKbHD5c-32" value="prix" style="text;strokeColor=none;fillColor=none;align=left;verticalAlign=middle;spacingLeft=4;spacingRight=4;overflow=hidden;points=[[0,0.5],[1,0.5]];portConstraint=eastwest;rotatable=0;whiteSpace=wrap;html=1;" vertex="1" parent="P29NJGGeOF0W7lKbHD5c-29">
          <mxGeometry y="90" width="140" height="30" as="geometry" />
        </mxCell>
        <mxCell id="P29NJGGeOF0W7lKbHD5c-33" value="" style="edgeStyle=orthogonalEdgeStyle;rounded=0;orthogonalLoop=1;jettySize=auto;html=1;exitX=1;exitY=0.5;exitDx=0;exitDy=0;endArrow=none;endFill=0;entryX=0;entryY=0.5;entryDx=0;entryDy=0;" edge="1" parent="1" target="P29NJGGeOF0W7lKbHD5c-24">
          <mxGeometry relative="1" as="geometry">
            <mxPoint x="1355" y="695" as="sourcePoint" />
            <mxPoint x="1450" y="715" as="targetPoint" />
            <Array as="points" />
          </mxGeometry>
        </mxCell>
        <mxCell id="P29NJGGeOF0W7lKbHD5c-34" value="1,n" style="text;html=1;align=center;verticalAlign=middle;whiteSpace=wrap;rounded=0;" vertex="1" parent="1">
          <mxGeometry x="1145" y="665" width="60" height="30" as="geometry" />
        </mxCell>
        <mxCell id="P29NJGGeOF0W7lKbHD5c-35" value="0,n" style="text;html=1;align=center;verticalAlign=middle;whiteSpace=wrap;rounded=0;" vertex="1" parent="1">
          <mxGeometry x="1405" y="665" width="60" height="30" as="geometry" />
        </mxCell>
        <mxCell id="P29NJGGeOF0W7lKbHD5c-36" value="1,3" style="text;html=1;align=center;verticalAlign=middle;whiteSpace=wrap;rounded=0;" vertex="1" parent="1">
          <mxGeometry x="1475" y="230" width="60" height="30" as="geometry" />
        </mxCell>
        <mxCell id="P29NJGGeOF0W7lKbHD5c-37" value="0,n" style="text;html=1;align=center;verticalAlign=middle;whiteSpace=wrap;rounded=0;" vertex="1" parent="1">
          <mxGeometry x="1475" y="555" width="60" height="30" as="geometry" />
        </mxCell>
        <mxCell id="P29NJGGeOF0W7lKbHD5c-38" value="PASSER" style="rhombus;whiteSpace=wrap;html=1;" vertex="1" parent="1">
          <mxGeometry x="1025" y="460" width="100" height="80" as="geometry" />
        </mxCell>
        <mxCell id="P29NJGGeOF0W7lKbHD5c-39" value="" style="edgeStyle=orthogonalEdgeStyle;rounded=0;orthogonalLoop=1;jettySize=auto;html=1;exitX=1;exitY=0.5;exitDx=0;exitDy=0;endArrow=none;endFill=0;" edge="1" parent="1">
          <mxGeometry relative="1" as="geometry">
            <mxPoint x="1145" y="695" as="sourcePoint" />
            <mxPoint x="1255" y="695" as="targetPoint" />
          </mxGeometry>
        </mxCell>
        <mxCell id="P29NJGGeOF0W7lKbHD5c-40" value="" style="edgeStyle=orthogonalEdgeStyle;rounded=0;orthogonalLoop=1;jettySize=auto;html=1;exitX=0.5;exitY=0;exitDx=0;exitDy=0;endArrow=none;endFill=0;" edge="1" parent="1" source="P29NJGGeOF0W7lKbHD5c-21" target="P29NJGGeOF0W7lKbHD5c-67">
          <mxGeometry relative="1" as="geometry">
            <mxPoint x="1535" y="620" as="sourcePoint" />
            <mxPoint x="1535" y="490" as="targetPoint" />
          </mxGeometry>
        </mxCell>
        <mxCell id="P29NJGGeOF0W7lKbHD5c-46" value="CONSTITUER" style="rhombus;whiteSpace=wrap;html=1;movableLabel=1;" vertex="1" parent="1">
          <mxGeometry x="1240" y="615" width="160" height="160" as="geometry">
            <mxPoint x="2" y="-22" as="offset" />
          </mxGeometry>
        </mxCell>
        <mxCell id="P29NJGGeOF0W7lKbHD5c-47" style="edgeStyle=orthogonalEdgeStyle;rounded=0;orthogonalLoop=1;jettySize=auto;html=1;exitX=0;exitY=0.5;exitDx=0;exitDy=0;entryX=1;entryY=0.5;entryDx=0;entryDy=0;endArrow=none;endFill=0;" edge="1" parent="1">
          <mxGeometry relative="1" as="geometry">
            <Array as="points">
              <mxPoint x="1320" y="695" />
              <mxPoint x="1320" y="695" />
            </Array>
            <mxPoint x="1240" y="695" as="sourcePoint" />
            <mxPoint x="1400" y="695" as="targetPoint" />
          </mxGeometry>
        </mxCell>
        <mxCell id="P29NJGGeOF0W7lKbHD5c-48" value="quantite_plat" style="text;html=1;align=center;verticalAlign=middle;whiteSpace=wrap;rounded=0;" vertex="1" parent="1">
          <mxGeometry x="1290" y="695" width="60" height="30" as="geometry" />
        </mxCell>
        <mxCell id="P29NJGGeOF0W7lKbHD5c-52" value="Allergenes" style="swimlane;fontStyle=0;childLayout=stackLayout;horizontal=1;startSize=30;horizontalStack=0;resizeParent=1;resizeParentMax=0;resizeLast=0;collapsible=1;marginBottom=0;whiteSpace=wrap;html=1;" vertex="1" parent="1">
          <mxGeometry x="1250" y="980" width="140" height="90" as="geometry" />
        </mxCell>
        <mxCell id="P29NJGGeOF0W7lKbHD5c-53" value="&lt;b&gt;&lt;u&gt;id_allergene&lt;/u&gt;&lt;/b&gt;" style="text;strokeColor=none;fillColor=none;align=left;verticalAlign=middle;spacingLeft=4;spacingRight=4;overflow=hidden;points=[[0,0.5],[1,0.5]];portConstraint=eastwest;rotatable=0;whiteSpace=wrap;html=1;" vertex="1" parent="P29NJGGeOF0W7lKbHD5c-52">
          <mxGeometry y="30" width="140" height="30" as="geometry" />
        </mxCell>
        <mxCell id="P29NJGGeOF0W7lKbHD5c-54" value="nom_allergene" style="text;strokeColor=none;fillColor=none;align=left;verticalAlign=middle;spacingLeft=4;spacingRight=4;overflow=hidden;points=[[0,0.5],[1,0.5]];portConstraint=eastwest;rotatable=0;whiteSpace=wrap;html=1;" vertex="1" parent="P29NJGGeOF0W7lKbHD5c-52">
          <mxGeometry y="60" width="140" height="30" as="geometry" />
        </mxCell>
        <mxCell id="P29NJGGeOF0W7lKbHD5c-61" style="edgeStyle=orthogonalEdgeStyle;rounded=0;orthogonalLoop=1;jettySize=auto;html=1;exitX=0.5;exitY=0;exitDx=0;exitDy=0;endArrow=none;endFill=0;" edge="1" parent="1" source="P29NJGGeOF0W7lKbHD5c-60" target="P29NJGGeOF0W7lKbHD5c-28">
          <mxGeometry relative="1" as="geometry">
            <Array as="points">
              <mxPoint x="1535" y="910" />
              <mxPoint x="1535" y="910" />
            </Array>
          </mxGeometry>
        </mxCell>
        <mxCell id="P29NJGGeOF0W7lKbHD5c-62" value="" style="edgeStyle=orthogonalEdgeStyle;rounded=0;orthogonalLoop=1;jettySize=auto;html=1;endArrow=none;endFill=0;" edge="1" parent="1" source="P29NJGGeOF0W7lKbHD5c-60" target="P29NJGGeOF0W7lKbHD5c-54">
          <mxGeometry relative="1" as="geometry">
            <Array as="points">
              <mxPoint x="1410" y="1040" />
              <mxPoint x="1410" y="1040" />
            </Array>
          </mxGeometry>
        </mxCell>
        <mxCell id="P29NJGGeOF0W7lKbHD5c-60" value="CONTENIR_ALLERGENE" style="rhombus;whiteSpace=wrap;html=1;" vertex="1" parent="1">
          <mxGeometry x="1457.5" y="960" width="155" height="160" as="geometry" />
        </mxCell>
        <mxCell id="P29NJGGeOF0W7lKbHD5c-63" value="0,n" style="text;html=1;align=center;verticalAlign=middle;whiteSpace=wrap;rounded=0;" vertex="1" parent="1">
          <mxGeometry x="1475" y="890" width="60" height="30" as="geometry" />
        </mxCell>
        <mxCell id="P29NJGGeOF0W7lKbHD5c-64" value="0,n" style="text;html=1;align=center;verticalAlign=middle;whiteSpace=wrap;rounded=0;" vertex="1" parent="1">
          <mxGeometry x="1390" y="1010" width="60" height="30" as="geometry" />
        </mxCell>
        <mxCell id="P29NJGGeOF0W7lKbHD5c-67" value="CONTENIR" style="rhombus;whiteSpace=wrap;html=1;" vertex="1" parent="1">
          <mxGeometry x="1457.5" y="325" width="155" height="160" as="geometry" />
        </mxCell>
      </root>
    </mxGraphModel>
  </diagram>
</mxfile>
